<svg xmlns="http://www.w3.org/2000/svg" viewBox="0 0 520 520" width="520" height="520"><title>Podkres – mozaika dětských kreseb</title><defs><clipPath id="cp"><rect width="520" height="520"/></clipPath></defs><g clip-path="url(#cp)" fill="none" stroke-width="2.1" stroke-linecap="round" stroke-linejoin="round"><g transform="translate(412.8 120.8) rotate(-11.8) scale(0.75)" stroke="#4A72AC" opacity="0.75"><path d="M0 0 L17.0 0.0"/><path d="M0 0 L8.5 14.7"/><path d="M0 0 L-8.5 14.7"/><path d="M0 0 L-17.0 0.0"/><path d="M0 0 L-8.5 -14.7"/><path d="M0 0 L8.5 -14.7"/><path d="M11.0 0.0 l3.1 3.9"/><path d="M11.0 0.0 l3.1 -3.9"/><path d="M5.5 9.5 l-1.8 4.6"/><path d="M5.5 9.5 l4.9 0.7"/><path d="M-5.5 9.5 l-4.9 0.7"/><path d="M-5.5 9.5 l1.8 4.6"/><path d="M-11.0 0.0 l-3.1 -3.9"/><path d="M-11.0 0.0 l-3.1 3.9"/><path d="M-5.5 -9.5 l1.8 -4.6"/><path d="M-5.5 -9.5 l-4.9 -0.7"/><path d="M5.5 -9.5 l4.9 -0.7"/><path d="M5.5 -9.5 l-1.8 -4.6"/></g><g transform="translate(400.8 211.5) rotate(-2.6) scale(1.15)" stroke="#4E8E9B" opacity="0.79"><path d="M-17 2 -17 20 17 20 17 2"/><path d="M-21 3 0 -15 21 3"/><path d="M-5 20 -5 9 5 9 5 20"/></g><g transform="translate(337.4 -32.3) rotate(-21.0) scale(1.02)" stroke="#4A72AC" opacity="0.61"><path d="M0 -8 V10"/><path d="M0 -4 C-16 -20 -22 -2 -2 6"/><path d="M0 -4 C16 -20 22 -2 2 6"/></g><g transform="translate(337.4 487.7) rotate(-21.0) scale(1.02)" stroke="#4A72AC" opacity="0.61"><path d="M0 -8 V10"/><path d="M0 -4 C-16 -20 -22 -2 -2 6"/><path d="M0 -4 C16 -20 22 -2 2 6"/></g><g transform="translate(235.6 287.0) rotate(-6.9) scale(1.12)" stroke="#2F5580" opacity="0.62"><circle cx="-3" cy="-3" r="12"/><path d="M6 6 17 17"/></g><g transform="translate(244.4 426.5) rotate(-18.7) scale(1.01)" stroke="#6E9C87" opacity="0.64"><path d="M-18 4 C-12 -6 -6 -6 0 2"/><path d="M0 2 C6 -6 12 -6 18 4"/></g><g transform="translate(-55.1 392.5) rotate(11.6) scale(1.14)" stroke="#4A72AC" opacity="0.61"><circle cx="0" cy="0" r="11"/><path d="M16.0 0.0 L23.0 0.0"/><path d="M11.3 11.3 L16.3 16.3"/><path d="M0.0 16.0 L0.0 23.0"/><path d="M-11.3 11.3 L-16.3 16.3"/><path d="M-16.0 0.0 L-23.0 0.0"/><path d="M-11.3 -11.3 L-16.3 -16.3"/><path d="M-0.0 -16.0 L-0.0 -23.0"/><path d="M11.3 -11.3 L16.3 -16.3"/></g><g transform="translate(464.9 392.5) rotate(11.6) scale(1.14)" stroke="#4A72AC" opacity="0.61"><circle cx="0" cy="0" r="11"/><path d="M16.0 0.0 L23.0 0.0"/><path d="M11.3 11.3 L16.3 16.3"/><path d="M0.0 16.0 L0.0 23.0"/><path d="M-11.3 11.3 L-16.3 16.3"/><path d="M-16.0 0.0 L-23.0 0.0"/><path d="M-11.3 -11.3 L-16.3 -16.3"/><path d="M-0.0 -16.0 L-0.0 -23.0"/><path d="M11.3 -11.3 L16.3 -16.3"/></g><g transform="translate(234.7 200.6) rotate(21.8) scale(0.88)" stroke="#2F5580" opacity="0.67"><ellipse cx="-9" cy="12" rx="6.4" ry="5"/><ellipse cx="11" cy="8" rx="6.4" ry="5"/><path d="M-2.6 12 V-14 L17.4 -18 V8"/><path d="M-2.6 -6 17.4 -10"/></g><g transform="translate(82.7 372.3) rotate(21.2) scale(1.08)" stroke="#4A72AC" opacity="0.77"><path d="M0 -16 C9 -5 14 1 14 7 A14 14 0 0 1 -14 7 C-14 1 -9 -5 0 -16Z"/></g><g transform="translate(88.4 181.1) rotate(18.8) scale(0.80)" stroke="#4E8E9B" opacity="0.89"><circle cx="0" cy="-10" r="4.6"/><circle cx="9.0" cy="-10.0" r="4.6"/><circle cx="2.8" cy="-1.4" r="4.6"/><circle cx="-7.3" cy="-4.7" r="4.6"/><circle cx="-7.3" cy="-15.3" r="4.6"/><circle cx="2.8" cy="-18.6" r="4.6"/><path d="M0 -4 V16"/><path d="M0 6 C7 4 9 -1 9 -1"/></g><g transform="translate(127.8 87.7) rotate(18.6) scale(1.12)" stroke="#6E9C87" opacity="0.9"><path d="M-12 14 C-12 -4 0 -16 14 -16 C14 0 3 14 -12 14Z"/><path d="M-12 14 C-4 6 4 -2 12 -12"/></g><g transform="translate(355.3 351.5) rotate(17.5) scale(0.88)" stroke="#6E9C87" opacity="0.73"><rect x="-16" y="2" width="15" height="15" rx="2.5"/><rect x="1" y="2" width="15" height="15" rx="2.5"/><rect x="-8" y="-14" width="15" height="15" rx="2.5"/></g><g transform="translate(-20.1 307.1) rotate(16.9) scale(1.15)" stroke="#2F5580" opacity="0.78"><path d="M-16 8 C-24 8 -24 -3 -15 -3 C-15 -13 0 -16 3 -7 C11 -12 19 -4 14 3 C18 5 17 8 13 8 Z"/></g><g transform="translate(499.9 307.1) rotate(16.9) scale(1.15)" stroke="#2F5580" opacity="0.78"><path d="M-16 8 C-24 8 -24 -3 -15 -3 C-15 -13 0 -16 3 -7 C11 -12 19 -4 14 3 C18 5 17 8 13 8 Z"/></g><g transform="translate(-33.1 127.9) rotate(2.7) scale(1.01)" stroke="#2F5580" opacity="0.91"><circle cx="0" cy="0" r="8.5"/><circle cx="0" cy="0" r="15"/><path d="M15.0 0.0 L21.0 0.0"/><path d="M10.6 10.6 L14.8 14.8"/><path d="M0.0 15.0 L0.0 21.0"/><path d="M-10.6 10.6 L-14.8 14.8"/><path d="M-15.0 0.0 L-21.0 0.0"/><path d="M-10.6 -10.6 L-14.8 -14.8"/><path d="M-0.0 -15.0 L-0.0 -21.0"/><path d="M10.6 -10.6 L14.8 -14.8"/></g><g transform="translate(486.9 127.9) rotate(2.7) scale(1.01)" stroke="#2F5580" opacity="0.91"><circle cx="0" cy="0" r="8.5"/><circle cx="0" cy="0" r="15"/><path d="M15.0 0.0 L21.0 0.0"/><path d="M10.6 10.6 L14.8 14.8"/><path d="M0.0 15.0 L0.0 21.0"/><path d="M-10.6 10.6 L-14.8 14.8"/><path d="M-15.0 0.0 L-21.0 0.0"/><path d="M-10.6 -10.6 L-14.8 -14.8"/><path d="M-0.0 -15.0 L-0.0 -21.0"/><path d="M10.6 -10.6 L14.8 -14.8"/></g><g transform="translate(-52.4 -8.6) rotate(10.8) scale(0.87)" stroke="#2F5580" opacity="0.57"><path d="M0 -16 4.7 -5.2 16.5 -4.3 7.6 3.5 10.3 15 0 8.7 -10.3 15 -7.6 3.5 -16.5 -4.3 -4.7 -5.2 Z"/></g><g transform="translate(-52.4 511.4) rotate(10.8) scale(0.87)" stroke="#2F5580" opacity="0.57"><path d="M0 -16 4.7 -5.2 16.5 -4.3 7.6 3.5 10.3 15 0 8.7 -10.3 15 -7.6 3.5 -16.5 -4.3 -4.7 -5.2 Z"/></g><g transform="translate(467.6 -8.6) rotate(10.8) scale(0.87)" stroke="#2F5580" opacity="0.57"><path d="M0 -16 4.7 -5.2 16.5 -4.3 7.6 3.5 10.3 15 0 8.7 -10.3 15 -7.6 3.5 -16.5 -4.3 -4.7 -5.2 Z"/></g><g transform="translate(467.6 511.4) rotate(10.8) scale(0.87)" stroke="#2F5580" opacity="0.57"><path d="M0 -16 4.7 -5.2 16.5 -4.3 7.6 3.5 10.3 15 0 8.7 -10.3 15 -7.6 3.5 -16.5 -4.3 -4.7 -5.2 Z"/></g><g transform="translate(129.9 -23.0) rotate(-3.5) scale(0.86)" stroke="#2F5580" opacity="0.89"><path d="M-18 8 C-12 18 12 18 18 8Z"/><path d="M0 6 V-16 L14 4Z"/></g><g transform="translate(129.9 497.0) rotate(-3.5) scale(0.86)" stroke="#2F5580" opacity="0.89"><path d="M-18 8 C-12 18 12 18 18 8Z"/><path d="M0 6 V-16 L14 4Z"/></g><g transform="translate(37.4 61.9) rotate(-9.6) scale(1.06)" stroke="#4E8E9B" opacity="0.79"><path d="M-16 0 C-8 -12 8 -12 14 0 C8 12 -8 12 -16 0Z"/><path d="M14 0 22 -8 22 8Z"/><circle cx="-7" cy="-2" r="1.8"/></g><g transform="translate(557.4 61.9) rotate(-9.6) scale(1.06)" stroke="#4E8E9B" opacity="0.79"><path d="M-16 0 C-8 -12 8 -12 14 0 C8 12 -8 12 -16 0Z"/><path d="M14 0 22 -8 22 8Z"/><circle cx="-7" cy="-2" r="1.8"/></g><g transform="translate(256.8 114.2) rotate(-14.7) scale(0.86)" stroke="#6E9C87" opacity="0.94"><path d="M-20 12 A20 20 0 0 1 20 12"/><path d="M-13 12 A13 13 0 0 1 13 12"/><path d="M-6 12 A6 6 0 0 1 6 12"/></g><g transform="translate(-36.8 201.6) rotate(16.0) scale(0.74)" stroke="#2F5580" opacity="0.89"><path d="M0 20 V4"/><path d="M0 -18 C10 -6 14 2 0 4 C-14 2 -10 -6 0 -18Z"/><path d="M0 12 -7 5"/><path d="M0 9 7 3"/></g><g transform="translate(483.2 201.6) rotate(16.0) scale(0.74)" stroke="#2F5580" opacity="0.89"><path d="M0 20 V4"/><path d="M0 -18 C10 -6 14 2 0 4 C-14 2 -10 -6 0 -18Z"/><path d="M0 12 -7 5"/><path d="M0 9 7 3"/></g><g transform="translate(174.4 333.6) rotate(8.0) scale(0.81)" stroke="#4E8E9B" opacity="0.59"><path d="M0 0 L17.0 0.0"/><path d="M0 0 L8.5 14.7"/><path d="M0 0 L-8.5 14.7"/><path d="M0 0 L-17.0 0.0"/><path d="M0 0 L-8.5 -14.7"/><path d="M0 0 L8.5 -14.7"/><path d="M11.0 0.0 l3.1 3.9"/><path d="M11.0 0.0 l3.1 -3.9"/><path d="M5.5 9.5 l-1.8 4.6"/><path d="M5.5 9.5 l4.9 0.7"/><path d="M-5.5 9.5 l-4.9 0.7"/><path d="M-5.5 9.5 l1.8 4.6"/><path d="M-11.0 0.0 l-3.1 -3.9"/><path d="M-11.0 0.0 l-3.1 3.9"/><path d="M-5.5 -9.5 l1.8 -4.6"/><path d="M-5.5 -9.5 l-4.9 -0.7"/><path d="M5.5 -9.5 l4.9 -0.7"/><path d="M5.5 -9.5 l-1.8 -4.6"/></g><g transform="translate(323.3 51.5) rotate(20.9) scale(1.01)" stroke="#6E9C87" opacity="0.57"><path d="M-17 2 -17 20 17 20 17 2"/><path d="M-21 3 0 -15 21 3"/><path d="M-5 20 -5 9 5 9 5 20"/></g><g transform="translate(323.3 571.5) rotate(20.9) scale(1.01)" stroke="#6E9C87" opacity="0.57"><path d="M-17 2 -17 20 17 20 17 2"/><path d="M-21 3 0 -15 21 3"/><path d="M-5 20 -5 9 5 9 5 20"/></g><g transform="translate(260.6 20.4) rotate(4.7) scale(0.73)" stroke="#2F5580" opacity="0.66"><path d="M0 -8 V10"/><path d="M0 -4 C-16 -20 -22 -2 -2 6"/><path d="M0 -4 C16 -20 22 -2 2 6"/></g><g transform="translate(260.6 540.4) rotate(4.7) scale(0.73)" stroke="#2F5580" opacity="0.66"><path d="M0 -8 V10"/><path d="M0 -4 C-16 -20 -22 -2 -2 6"/><path d="M0 -4 C16 -20 22 -2 2 6"/></g><g transform="translate(41.8 -52.2) rotate(10.9) scale(0.97)" stroke="#6E9C87" opacity="0.62"><circle cx="-3" cy="-3" r="12"/><path d="M6 6 17 17"/></g><g transform="translate(41.8 467.8) rotate(10.9) scale(0.97)" stroke="#6E9C87" opacity="0.62"><circle cx="-3" cy="-3" r="12"/><path d="M6 6 17 17"/></g><g transform="translate(561.8 -52.2) rotate(10.9) scale(0.97)" stroke="#6E9C87" opacity="0.62"><circle cx="-3" cy="-3" r="12"/><path d="M6 6 17 17"/></g><g transform="translate(561.8 467.8) rotate(10.9) scale(0.97)" stroke="#6E9C87" opacity="0.62"><circle cx="-3" cy="-3" r="12"/><path d="M6 6 17 17"/></g><g transform="translate(313.0 265.7) rotate(21.8) scale(1.05)" stroke="#6E9C87" opacity="0.82"><path d="M-18 4 C-12 -6 -6 -6 0 2"/><path d="M0 2 C6 -6 12 -6 18 4"/></g><g transform="translate(103.2 257.1) rotate(-8.6) scale(0.88)" stroke="#4E8E9B" opacity="0.75"><circle cx="0" cy="0" r="11"/><path d="M16.0 0.0 L23.0 0.0"/><path d="M11.3 11.3 L16.3 16.3"/><path d="M0.0 16.0 L0.0 23.0"/><path d="M-11.3 11.3 L-16.3 16.3"/><path d="M-16.0 0.0 L-23.0 0.0"/><path d="M-11.3 -11.3 L-16.3 -16.3"/><path d="M-0.0 -16.0 L-0.0 -23.0"/><path d="M11.3 -11.3 L16.3 -16.3"/></g><g transform="translate(339.0 149.6) rotate(11.0) scale(1.11)" stroke="#4A72AC" opacity="0.95"><ellipse cx="-9" cy="12" rx="6.4" ry="5"/><ellipse cx="11" cy="8" rx="6.4" ry="5"/><path d="M-2.6 12 V-14 L17.4 -18 V8"/><path d="M-2.6 -6 17.4 -10"/></g><g transform="translate(410.8 453.5) rotate(17.3) scale(1.04)" stroke="#2F5580" opacity="0.99"><path d="M0 -16 C9 -5 14 1 14 7 A14 14 0 0 1 -14 7 C-14 1 -9 -5 0 -16Z"/></g><g transform="translate(177.6 151.5) rotate(14.8) scale(0.82)" stroke="#2F5580" opacity="0.68"><circle cx="0" cy="-10" r="4.6"/><circle cx="9.0" cy="-10.0" r="4.6"/><circle cx="2.8" cy="-1.4" r="4.6"/><circle cx="-7.3" cy="-4.7" r="4.6"/><circle cx="-7.3" cy="-15.3" r="4.6"/><circle cx="2.8" cy="-18.6" r="4.6"/><path d="M0 -4 V16"/><path d="M0 6 C7 4 9 -1 9 -1"/></g><g transform="translate(314.6 421.0) rotate(18.1) scale(0.76)" stroke="#4E8E9B" opacity="0.8"><path d="M-12 14 C-12 -4 0 -16 14 -16 C14 0 3 14 -12 14Z"/><path d="M-12 14 C-4 6 4 -2 12 -12"/></g><g transform="translate(158.7 427.8) rotate(-13.8) scale(0.83)" stroke="#4E8E9B" opacity="0.7"><rect x="-16" y="2" width="15" height="15" rx="2.5"/><rect x="1" y="2" width="15" height="15" rx="2.5"/><rect x="-8" y="-14" width="15" height="15" rx="2.5"/></g><g transform="translate(34.2 236.0) rotate(-0.8) scale(0.86)" stroke="#6E9C87" opacity="0.85"><path d="M-16 8 C-24 8 -24 -3 -15 -3 C-15 -13 0 -16 3 -7 C11 -12 19 -4 14 3 C18 5 17 8 13 8 Z"/></g><g transform="translate(554.2 236.0) rotate(-0.8) scale(0.86)" stroke="#6E9C87" opacity="0.85"><path d="M-16 8 C-24 8 -24 -3 -15 -3 C-15 -13 0 -16 3 -7 C11 -12 19 -4 14 3 C18 5 17 8 13 8 Z"/></g><g transform="translate(38.1 138.1) rotate(20.0) scale(0.80)" stroke="#2F5580" opacity="0.97"><circle cx="0" cy="0" r="8.5"/><circle cx="0" cy="0" r="15"/><path d="M15.0 0.0 L21.0 0.0"/><path d="M10.6 10.6 L14.8 14.8"/><path d="M0.0 15.0 L0.0 21.0"/><path d="M-10.6 10.6 L-14.8 14.8"/><path d="M-15.0 0.0 L-21.0 0.0"/><path d="M-10.6 -10.6 L-14.8 -14.8"/><path d="M-0.0 -15.0 L-0.0 -21.0"/><path d="M10.6 -10.6 L14.8 -14.8"/></g><g transform="translate(558.1 138.1) rotate(20.0) scale(0.80)" stroke="#2F5580" opacity="0.97"><circle cx="0" cy="0" r="8.5"/><circle cx="0" cy="0" r="15"/><path d="M15.0 0.0 L21.0 0.0"/><path d="M10.6 10.6 L14.8 14.8"/><path d="M0.0 15.0 L0.0 21.0"/><path d="M-10.6 10.6 L-14.8 14.8"/><path d="M-15.0 0.0 L-21.0 0.0"/><path d="M-10.6 -10.6 L-14.8 -14.8"/><path d="M-0.0 -15.0 L-0.0 -21.0"/><path d="M10.6 -10.6 L14.8 -14.8"/></g><g transform="translate(411.1 287.2) rotate(-10.1) scale(0.76)" stroke="#6E9C87" opacity="0.92"><path d="M0 -16 4.7 -5.2 16.5 -4.3 7.6 3.5 10.3 15 0 8.7 -10.3 15 -7.6 3.5 -16.5 -4.3 -4.7 -5.2 Z"/></g><g transform="translate(400.5 55.4) rotate(16.4) scale(0.79)" stroke="#4A72AC" opacity="0.84"><path d="M-18 8 C-12 18 12 18 18 8Z"/><path d="M0 6 V-16 L14 4Z"/></g><g transform="translate(400.5 575.4) rotate(16.4) scale(0.79)" stroke="#4A72AC" opacity="0.84"><path d="M-18 8 C-12 18 12 18 18 8Z"/><path d="M0 6 V-16 L14 4Z"/></g><g transform="translate(170.7 233.7) rotate(-12.9) scale(0.90)" stroke="#4E8E9B" opacity="0.92"><path d="M-20 12 A20 20 0 0 1 20 12"/><path d="M-13 12 A13 13 0 0 1 13 12"/><path d="M-6 12 A6 6 0 0 1 6 12"/></g><g transform="translate(193.3 15.4) rotate(5.7) scale(0.86)" stroke="#4E8E9B" opacity="0.82"><path d="M0 20 V4"/><path d="M0 -18 C10 -6 14 2 0 4 C-14 2 -10 -6 0 -18Z"/><path d="M0 12 -7 5"/><path d="M0 9 7 3"/></g><g transform="translate(193.3 535.4) rotate(5.7) scale(0.86)" stroke="#4E8E9B" opacity="0.82"><path d="M0 20 V4"/><path d="M0 -18 C10 -6 14 2 0 4 C-14 2 -10 -6 0 -18Z"/><path d="M0 12 -7 5"/><path d="M0 9 7 3"/></g></g></svg>
